# xmcd
#
# Track frame offsets:
#	150
#	5670
#	18387
#	30405
#	43415
#	56535
#	70692
#	82367
#	94315
#	106750
#	118517
#	132080
#	142610
#	156222
#	166520
#	177345
#	187287
#	197645
#	205742
#	213527
#	224302
#	238905
#	247625
#	255725
#	268650
#	274700
#	283692
#
# Disc length: 3884 seconds
#
# Revision: 1
# Processed by: cddbd v1.4PL0 Copyright (c) Steve Scherf et al.
# Submitted via: audiograbber 1.81.03
#
DISCID=870f2a1b
DTITLE=Tex Ritter - Have I Stayed Away Too Long - BCD-16239
DYEAR=2003
DGENRE=Country
TTITLE0=Have I Stayed Away Too Long (Opening Theme) - 1946
TTITLE1=You Will Have To Pay (For Your Yesterday) - 1946
TTITLE2=Green Grow The Lilacs - 1946
TTITLE3=San Antonio Rose - 1946
TTITLE4=I'm Gonna Leave You Like I Found You - 1946
TTITLE5=Long Time Gone - 1946
TTITLE6=It's Never Too Late - 1946
TTITLE7=How Was I To Know - 1946
TTITLE8=In Case You Change Your Mind - 1946
TTITLE9=Try Me One More Time - 1946
TTITLE10=Home On The Range - 1946
TTITLE11=Red River Valley - 1946
TTITLE12=I'm Gonna Leave You Like I Found You - 2002
TTITLE13=Down In The Valley - 1946
TTITLE14=Billy The Kid - 1946
TTITLE15=O Bury Me Not On The Lone Prairie - 1946
TTITLE16=Ridin' On Old Paint - 1946
TTITLE17=De Camptown Races - 1946
TTITLE18=Sam Bass - 1946
TTITLE19=Zebra Dun - 1946
TTITLE20=Trail To Mexico - 1946
TTITLE21=Whoopee Ti Yi Yo (Git Along Little Dogies) - 1946
TTITLE22=Casey Jones - 2002
TTITLE23=When The Work's All Done This Fall - 1946
TTITLE24=Up The Lazy River (Instrumental) - 2002
TTITLE25=There'll Be Some Changes Made (Instrumental) - 2003
TTITLE26=I've Found A New Baby (Instrumental) - 2002
EXTD=Bear Family BCD-16239  CD 1
EXTT0=
EXTT1=
EXTT2=
EXTT3=
EXTT4=
EXTT5=
EXTT6=
EXTT7=
EXTT8=
EXTT9=
EXTT10=
EXTT11=
EXTT12=
EXTT13=
EXTT14=
EXTT15=
EXTT16=
EXTT17=
EXTT18=
EXTT19=
EXTT20=
EXTT21=
EXTT22=
EXTT23=
EXTT24=
EXTT25=
EXTT26=
PLAYORDER=
